<svg xmlns="http://www.w3.org/2000/svg" width="64" height="64" viewBox="0 0 64 64" color="#554332" role="img" aria-labelledby="title"><title id="title">Meat under the Sač</title><g stroke="currentColor" stroke-width="2" stroke-linecap="round" stroke-linejoin="round"><path d="M7 32C8 19 17 12 29 12s22 7 23 20Z" fill="#d9b98a"/><path d="M23 12V8c0-5 12-5 12 0v4" fill="none"/><path d="M5 32h49v4H5Z" fill="#78906c"/><path d="M14 24c3-5 7-7 11-8" fill="none" stroke="#fff1d7"/><path d="M11 43c0-5 10-9 24-9s24 4 24 9-10 9-24 9-24-4-24-9Z" fill="#554332"/><path d="M11 43v7c0 5 10 9 24 9s24-4 24-9v-7c-4 6-43 9-48 0Z" fill="#78906c"/><path d="M21 39c-4-1-7 3-5 6 3 4 13 3 15-1 2-3-5-6-10-5Z" fill="#b76552"/><path d="M39 38c-5-2-9 3-6 6 4 4 14 3 15-1 1-3-5-5-9-5Z" fill="#b76552"/><path d="M21 41l5 2M37 40l6 2" stroke="#dc9682" fill="none"/><ellipse cx="51" cy="45" rx="4" ry="3" fill="#edc875"/><ellipse cx="30" cy="47" rx="4" ry="2.5" fill="#edc875"/><path d="M5 41l3 1M4 49l3-1M5 56l4 1" stroke="#b76552" fill="none"/></g></svg>