<svg xmlns="http://www.w3.org/2000/svg" width="64" height="64" viewBox="0 0 64 64" color="#554332" role="img" aria-labelledby="title"><title id="title">Fish</title><g stroke="currentColor" stroke-width="2" stroke-linecap="round" stroke-linejoin="round"><path d="M9 33c10-14 24-14 36-4l13-10v27L45 37C32 48 18 46 9 33Z" fill="#78906c"/><path d="M23 23l8-10 10 12M24 43l9 10 7-11" fill="#d9b98a"/><path d="M28 24c-4 6-4 14 0 20" fill="none"/><circle cx="18" cy="31" r="2" fill="#fff1d7"/><path d="M36 28l4 4-4 4" fill="none" stroke="#fff1d7"/><path d="M9 56q6-4 12 0t12 0 12 0 12 0" fill="none" stroke="#4a7c8e"/></g></svg>